<?xml version="1.0" encoding="utf-8"?>
<svg
  width="800px"
  height="800px"
  viewBox="0 0 24 24"
  id="Layer_1"
  data-name="Layer 1"
  xmlns="http://www.w3.org/2000/svg"
>
  <defs>
    <style>
      .cls-1 {
        fill: none;
        stroke: #020202;
        stroke-miterlimit: 10;
        stroke-width: 1.92px;
      }
      .search-icon {
        fill: #000000;
      }
    </style>
  </defs>
  
  <!-- Main icon elements -->
  <line class="cls-1" x1="0.5" y1="3.35" x2="12" y2="3.35" />
  <line class="cls-1" x1="6.25" y1="0.48" x2="6.25" y2="3.35" />
  <path class="cls-1" d="M9.12,3.35c0,3.52-3.28,8.2-7.66,10.55" />
  <path class="cls-1" d="M4.51,7.37A16.4,16.4,0,0,0,11,13.9" />
  <polyline
    class="cls-1"
    points="12.96 22.52 16.79 11.98 17.75 11.98 21.58 22.52"
  />
  <line class="cls-1" x1="20.43" y1="18.69" x2="15.07" y2="18.69" />
  <line class="cls-1" x1="11.04" y1="22.52" x2="14.88" y2="22.52" />
  <line class="cls-1" x1="19.67" y1="22.52" x2="23.5" y2="22.52" />
  
  <!-- Search magnifying glass icon -->
  <g class="search-icon" transform="translate(14, 1) scale(0.8)">
    <path d="M7.875 4.5a3.375 3.375 0 11-6.75 0 3.375 3.375 0 016.75 0zM0 4.5a4.5 4.5 0 007.05 3.708l3.45 3.463.796-.796-3.41-3.41A4.5 4.5 0 100 4.5z"/>
  </g>
</svg>
